<svg width="40" height="48" viewBox="0 0 40 48" fill="none" xmlns="http://www.w3.org/2000/svg">
  <!-- Stem curl at top right -->
  <path d="M22 5 Q26 2 28 5" stroke="#86EFAC" stroke-width="3" fill="none" stroke-linecap="round"/>
  
  <!-- Left ear/bump -->
  <circle cx="6" cy="16" r="5" fill="#86EFAC"/>
  
  <!-- Cap shape -->
  <rect x="8" y="6" width="24" height="16" rx="4" fill="#86EFAC"/>
  
  <!-- Woven pattern - X shapes -->
  <g stroke="#1a2e2e" stroke-width="2.5" stroke-linecap="round">
    <!-- Row 1 -->
    <line x1="12" y1="7" x2="16" y2="14"/>
    <line x1="16" y1="7" x2="12" y2="14"/>
    
    <line x1="18" y1="7" x2="22" y2="14"/>
    <line x1="22" y1="7" x2="18" y2="14"/>
    
    <line x1="24" y1="7" x2="28" y2="14"/>
    <line x1="28" y1="7" x2="24" y2="14"/>
    
    <!-- Row 2 -->
    <line x1="9" y1="13" x2="13" y2="20"/>
    <line x1="13" y1="13" x2="9" y2="20"/>
    
    <line x1="15" y1="13" x2="19" y2="20"/>
    <line x1="19" y1="13" x2="15" y2="20"/>
    
    <line x1="21" y1="13" x2="25" y2="20"/>
    <line x1="25" y1="13" x2="21" y2="20"/>
    
    <line x1="27" y1="13" x2="31" y2="20"/>
    <line x1="31" y1="13" x2="27" y2="20"/>
  </g>
  
  <!-- Acorn body -->
  <path d="M10 22 Q10 22 9 30 Q9 42 20 46 Q31 42 31 30 Q30 22 30 22 Z" fill="#86EFAC"/>
</svg>
